<svg width="722" height="732" viewBox="0 0 722 732" fill="none" xmlns="http://www.w3.org/2000/svg">
<path d="M328.249 18.0696C343.137 -6.0234 378.176 -6.0234 393.063 18.0696V18.0696C405.031 37.4375 431.204 42.0524 449.074 27.9459V27.9459C471.305 10.3978 504.23 22.3817 509.98 50.1137V50.1137C514.602 72.4068 537.618 85.6949 559.235 78.5512V78.5512C586.127 69.6646 612.968 92.187 608.886 120.213V120.213C605.605 142.743 622.687 163.101 645.444 163.782V163.782C673.754 164.629 691.273 194.973 677.852 219.913V219.913C667.063 239.961 676.152 264.935 697.304 273.358V273.358C723.616 283.836 729.701 318.342 708.559 337.187V337.187C691.564 352.337 691.564 378.913 708.559 394.062V394.062C729.701 412.908 723.616 447.414 697.304 457.892V457.892C676.152 466.315 667.063 491.289 677.852 511.337V511.337C691.273 536.277 673.754 566.621 645.444 567.468V567.468C622.687 568.149 605.605 588.507 608.886 611.037V611.037C612.968 639.063 586.127 661.585 559.235 652.699V652.699C537.618 645.555 514.602 658.843 509.98 681.136V681.136C504.23 708.868 471.305 720.852 449.074 703.304V703.304C431.204 689.198 405.031 693.813 393.063 713.18V713.18C378.176 737.273 343.137 737.273 328.249 713.18V713.18C316.281 693.812 290.109 689.198 272.238 703.304V703.304C250.008 720.852 217.082 708.868 211.332 681.136V681.136C206.71 658.843 183.695 645.555 162.077 652.699V652.699C135.186 661.585 108.345 639.063 112.427 611.037V611.037C115.708 588.507 98.6251 568.149 75.8681 567.468V567.468C47.559 566.621 30.0396 536.277 43.4609 511.337V511.337C54.2499 491.289 45.1603 466.315 24.0085 457.892V457.892C-2.30377 447.414 -8.38818 412.908 12.7536 394.063V394.063C29.749 378.913 29.749 352.337 12.7536 337.188V337.188C-8.38818 318.342 -2.30377 283.836 24.0085 273.358V273.358C45.1603 264.935 54.2499 239.961 43.4609 219.913V219.913C30.0396 194.973 47.559 164.629 75.8681 163.782V163.782C98.6251 163.101 115.708 142.743 112.427 120.213V120.213C108.345 92.187 135.186 69.6646 162.077 78.5512V78.5512C183.695 85.6949 206.71 72.4068 211.332 50.1137V50.1137C217.082 22.3817 250.008 10.3978 272.238 27.9459V27.9459C290.109 42.0524 316.281 37.4375 328.249 18.0696V18.0696Z" fill="#FF3636"/>
</svg>
