<svg xmlns="http://www.w3.org/2000/svg" viewBox="0 0 1080 1350" width="1080" height="1350">
<rect width="1080" height="1350" fill="#ca4737"/>
<rect x="40" y="40" width="1000" height="1270" fill="none" stroke="#fff0c3" stroke-opacity=".35" stroke-width="2"/>
<g transform="translate(390 150) scale(1.05)" fill="#fff0c3"><path d="M55.05 64.32L55.05 0L91.84 0L91.84 14.01L72.34 14.01L72.34 25.31L84.99 25.31L84.99 37.48L72.34 37.48L72.34 49.45L91.84 49.45L91.84 64.32ZM127 64.32L116.97 43.37L112.51 34.09L112.51 64.32L97.06 64.32L97.06 0L112.03 0L121.68 21.54L125.84 30.81L125.84 0L141.2 0L141.2 64.32ZM165.63 49.75L184.96 49.75L184.96 64.32L144.77 64.32L144.77 60.95L165.35 13.71L146.22 13.71L146.22 0L185.82 0L185.82 3.39ZM215.28 64.32L214.11 55.34L203.88 55.34L202.44 64.32L186.69 64.32L199.72 0L219.81 0L232.56 64.32ZM209.58 21.73L205.91 43.46L212.47 43.46ZM4.55 85.98L4.55 91.02L9.66 91.02L9.66 94.66L4.55 94.66L4.55 103.43L0 103.43L0 82.29L11.57 82.29L11.57 85.98ZM46.97 103.43L46.08 99.24L41.7 99.24L40.81 103.43L36.56 103.43L41.51 82.29L46.59 82.29L51.51 103.43ZM43.98 88.16L42.37 95.88L45.48 95.88ZM93.02 103.43L93.02 88.45L91.97 93.24L89.42 103.43L86.03 103.43L83.61 93.24L82.59 88.45L82.59 103.43L78.53 103.43L78.53 82.29L84.63 82.29L87.17 93.05L87.94 96.76L88.72 93.05L91.23 82.29L97.3 82.29L97.3 103.43ZM125.71 103.43L125.71 82.29L130.26 82.29L130.26 103.43ZM169.91 103.43L169.35 101.49C168.92 102.3 168.31 102.91 167.52 103.34C166.73 103.76 165.82 103.98 164.8 103.98C163.75 103.98 162.83 103.8 162.05 103.46C161.27 103.13 160.62 102.68 160.08 102.12C159.55 101.55 159.15 100.91 158.88 100.16C158.62 99.43 158.49 98.64 158.49 97.82L158.49 87.91C158.49 87.13 158.64 86.37 158.94 85.63C159.26 84.89 159.71 84.24 160.3 83.66C160.9 83.09 161.63 82.64 162.51 82.3C163.38 81.96 164.38 81.79 165.51 81.79C166.63 81.79 167.62 81.96 168.46 82.29C169.3 82.61 170.01 83.05 170.58 83.62C171.16 84.17 171.58 84.82 171.87 85.57C172.16 86.31 172.3 87.09 172.3 87.91L172.3 89.49L167.91 89.49L167.91 87.79C167.91 87.2 167.73 86.69 167.35 86.26C166.98 85.82 166.38 85.6 165.54 85.6C164.71 85.6 164.1 85.83 163.69 86.29C163.3 86.74 163.1 87.26 163.1 87.85L163.1 97.88C163.1 98.45 163.31 98.96 163.73 99.43C164.15 99.9 164.76 100.13 165.57 100.13C166.41 100.13 167.04 99.9 167.46 99.43C167.87 98.96 168.08 98.45 168.08 97.88L168.08 95.68L165.6 95.68L165.6 92.57L172.4 92.57L172.4 103.43ZM200.5 103.43L200.5 82.29L205.04 82.29L205.04 99.52L212 99.52L212 103.43ZM239.3 103.43L239.3 82.29L243.85 82.29L243.85 103.43ZM281.28 103.43L280.39 99.24L276.02 99.24L275.13 103.43L270.88 103.43L275.83 82.29L280.91 82.29L285.83 103.43ZM278.3 88.16L276.69 95.88L279.8 95.88Z"/></g>
<text x="540" y="650" text-anchor="middle" font-family="Georgia, 'Times New Roman', serif" font-style="italic" font-size="124" fill="#fff0c3">Colazione</text>
<text x="540" y="790" text-anchor="middle" font-family="Georgia, 'Times New Roman', serif" font-style="italic" font-size="96" fill="#fff0c3" fill-opacity=".85">al Louvre</text>
<line x1="470" y1="880" x2="610" y2="880" stroke="#fff0c3" stroke-opacity=".5" stroke-width="2"/>
<text x="540" y="950" text-anchor="middle" font-family="'Helvetica Neue', Arial, sans-serif" font-size="30" letter-spacing="6" fill="#fff0c3" fill-opacity=".8">NOUVELLE CARTE PETIT DÉJEUNER</text>
<text x="540" y="1230" text-anchor="middle" font-family="'Helvetica Neue', Arial, sans-serif" font-size="24" letter-spacing="8" fill="#fff0c3" fill-opacity=".6">VISUEL EN PRÉPARATION · 18H22</text>
</svg>